PathFileType	4	(X/Y/Z)	/Users/niels/Desktop/University/Third Semester/Perception and Action/Exam/Gymnastics Motion Tracking/Code for Gym Tracking/Analyzed Data/Backflip/id1_3_pettlep_Sports2D/id1_3_pettlep_Sports2D_px_person00.trc
DataRate	CameraRate	NumFrames	NumMarkers	Units	OrigDataRate	OrigDataStartFrame	OrigNumFrames
59.90876837303599	59.90876837303599	11	22	m	59.90876837303599	49	198
Frame#	Time	Hip			RHip			RKnee			RAnkle			RBigToe			RSmallToe			RHeel			LHip			LKnee			LAnkle			LBigToe			LSmallToe			LHeel			Neck			Head			Nose			RShoulder			RElbow			RWrist			LShoulder			LElbow			LWrist		
		X1	Y1	Z1	X2	Y2	Z2	X3	Y3	Z3	X4	Y4	Z4	X5	Y5	Z5	X6	Y6	Z6	X7	Y7	Z7	X8	Y8	Z8	X9	Y9	Z9	X10	Y10	Z10	X11	Y11	Z11	X12	Y12	Z12	X13	Y13	Z13	X14	Y14	Z14	X15	Y15	Z15	X16	Y16	Z16	X17	Y17	Z17	X18	Y18	Z18	X19	Y19	Z19	X20	Y20	Z20	X21	Y21	Z21	X22	Y22	Z22
49	0.8179103214890017	1.0658419562004722	-0.5239580597492084	0.0	1.0624783514480305	-0.5243049479898336	0.0	1.0626164124010273	-0.6241664663394373	0.0	1.0483021755592956	-0.7155199374027583	0.0	1.0854282030195843	-0.7210624824001869	0.0	1.0757615321137886	-0.7252523897844798	0.0	1.0417927055700988	-0.725194146675514	0.0	1.0711668223695892	-0.5236086293084228	0.0	1.0721782339482824	-0.623609532280615	0.0	1.053931748938332	-0.7115714677183472	0.0	1.0899737645126069	-0.7196544520750608	0.0	1.0821647317725045	-0.7147164593321752	0.0	1.0421951886774972	-0.7186382482305046	0.0	1.0843223529840107	-0.3897149934978907	0.0	1.0985889335437597	-0.330331876843637	0.0	1.1159898166388063	-0.3653952160706065	0.0	1.085781344313696	-0.399927616841118	0.0	1.1532236315080526	-0.40018265673165515	0.0	1.213736766098975	-0.3870003995429091	0.0	1.0853301874232175	-0.4021716355364004	0.0	1.1483723094990477	-0.40712049634888386	0.0	1.2048738632851987	-0.39339384694376334	0.0
50	0.8346023688663282	1.0650962227631429	-0.5241320710449615	0.0	1.0615362912209014	-0.5241571455102355	0.0	1.0621493666837718	-0.6240968491501767	0.0	1.0479780016228588	-0.7154990558825599	0.0	1.0852878236355552	-0.7208995172342076	0.0	1.0757606113202132	-0.7250727137368469	0.0	1.0413964254264956	-0.7251793373198511	0.0	1.0707201486224684	-0.5233223649556881	0.0	1.072557155187011	-0.6235631601675229	0.0	1.0540184292211823	-0.7113497665647618	0.0	1.0901287038840226	-0.7197835760879149	0.0	1.0822756827203373	-0.7147753735716155	0.0	1.0423612678754488	-0.7184253765633033	0.0	1.0847386641656023	-0.3902170262386071	0.0	1.0990792465530528	-0.3304203034858429	0.0	1.1163968883290158	-0.3658805370901059	0.0	1.0866001582608136	-0.40086771207131666	0.0	1.153905611956567	-0.4062533841839618	0.0	1.2150585670177716	-0.39763366700647784	0.0	1.0854799852220722	-0.40311322852166753	0.0	1.1500962770522953	-0.4103399754005205	0.0	1.2077928193764789	-0.39927918256313527	0.0
51	0.8512944162436548	1.0644103162749212	-0.5242974162503511	0.0	1.0606509335935506	-0.5240258635212294	0.0	1.0617030422205664	-0.6240733222175203	0.0	1.047674291777525	-0.715537766689892	0.0	1.0850926107350747	-0.7208251583485621	0.0	1.0756184104195097	-0.7249388633009015	0.0	1.0410131488780017	-0.7251504832073989	0.0	1.0703260291370873	-0.5230889853450018	0.0	1.0730200708450865	-0.6235521028070073	0.0	1.0540898328535144	-0.7111937854403307	0.0	1.0901754533931851	-0.7200071582871387	0.0	1.082377291803066	-0.7148937091261883	0.0	1.0425715257401575	-0.7183504048021582	0.0	1.0852017137841008	-0.39079074638346334	0.0	1.0995771008502706	-0.3306668019162543	0.0	1.116859922839171	-0.3664093387031694	0.0	1.0873604075642198	-0.40198881900114397	0.0	1.1542470139199372	-0.41255785869842504	0.0	1.2157363133175751	-0.4086311075671633	0.0	1.0855390159919711	-0.40421405782414743	0.0	1.1506448208129456	-0.41495729327703273	0.0	1.2090954468769781	-0.4073972932284337	0.0
52	0.8679864636209813	1.0637886793388702	-0.5244695821180917	0.0	1.0598394008489538	-0.5239424744013341	0.0	1.0612931855799388	-0.6241093203564295	0.0	1.0474050942175321	-0.7156437175458263	0.0	1.0848741340823882	-0.7208646688509311	0.0	1.075350643558932	-0.7248868405008344	0.0	1.0406535888055686	-0.7251353766278914	0.0	1.069981792323686	-0.5229391904815693	0.0	1.073567630012593	-0.6235896032478437	0.0	1.0541488097470157	-0.7111166583628834	0.0	1.0901153099943182	-0.7203455971483649	0.0	1.0824742264896041	-0.7150944477029127	0.0	1.0428175441985628	-0.7184372452559263	0.0	1.085688423720498	-0.39143989591045253	0.0	1.100090667036579	-0.33105731685975626	0.0	1.117363510115941	-0.36698353663376554	0.0	1.088041993336056	-0.40328313621389705	0.0	1.1542044097003283	-0.4190738636978403	0.0	1.2157181783428872	-0.41993260020743417	0.0	1.085480874837252	-0.4054432170072616	0.0	1.150083376906431	-0.42067855143018096	0.0	1.2089177428305142	-0.4172387529631489	0.0
53	0.8846785109983079	1.063233173534805	-0.5246760147158224	0.0	1.0591182016172984	-0.5239441978948982	0.0	1.060935466288157	-0.6242185867063781	0.0	1.0471781265089668	-0.7158288983332505	0.0	1.084661184678187	-0.7210453728798519	0.0	1.0749710608742813	-0.724955115761851	0.0	1.040319874461131	-0.7251740130660235	0.0	1.069680439322884	-0.5229071254764617	0.0	1.07418578692483	-0.6236894164988503	0.0	1.0542011553407526	-0.7111321435986935	0.0	1.089960055124128	-0.7208215570380244	0.0	1.0825692411004653	-0.7154076562268379	0.0	1.0430890538096482	-0.7187153188078055	0.0	1.08617291623919	-0.3921600219483191	0.0	1.1006181136295594	-0.3315782400121897	0.0	1.1178870744587	-0.3676012901669477	0.0	1.088630598419514	-0.40473469870053763	0.0	1.1537390397893572	-0.42576443087542004	0.0	1.2149532952050985	-0.4314670182288046	0.0	1.085275940572328	-0.40676209195039387	0.0	1.1484847321952312	-0.4271841317547648	0.0	1.2074045700054863	-0.42831423278225583	0.0
54	0.9013705583756344	1.0627456496026364	-0.5249481342054951	0.0	1.0585048144916414	-0.5240700391603735	0.0	1.0606445011354284	-0.6244150930471271	0.0	1.046995640029969	-0.7161090658398469	0.0	1.0844712449378793	-0.7214015702542952	0.0	1.0744873323465536	-0.7251888525783367	0.0	1.040007477227927	-0.7253159738820065	0.0	1.069411110031791	-0.5230277331302803	0.0	1.0748510958089619	-0.6238649895671496	0.0	1.0542523737205045	-0.7112552045252211	0.0	1.0897225676413438	-0.721461954669924	0.0	1.082657497349403	-0.715870299501436	0.0	1.0433727937163058	-0.7192182808240577	0.0	1.086630764448545	-0.39293968393710527	0.0	1.1011504446482676	-0.33222007577278234	0.0	1.1184067939265918	-0.3682616230992718	0.0	1.0891184674919725	-0.4063204700772319	0.0	1.152816280087618	-0.4325774669755326	0.0	1.21339116223355	-0.44315364209846175	0.0	1.0848930896540452	-0.4081276066765286	0.0	1.145928811974146	-0.4341555494933866	0.0	1.2046990057144658	-0.44017529634824193	0.0
55	0.9180626057529611	1.0623322655227232	-0.5253135295443906	0.0	1.0580193188810543	-0.5243549864798192	0.0	1.0604347362910787	-0.6247122297721756	0.0	1.046854965534406	-0.7164974601916944	0.0	1.0843024688741645	-0.7219752990518522	0.0	1.073899149981078	-0.7256395292807483	0.0	1.0397090790132892	-0.7256110050830984	0.0	1.0691622947206716	-0.5233334664158503	0.0	1.0755363007123633	-0.6241287477947266	0.0	1.0543032011344882	-0.7115010419863925	0.0	1.0894124731319583	-0.7222972707887444	0.0	1.0827235133406212	-0.7165228773440312	0.0	1.0436496763786187	-0.7199773960304054	0.0	1.0870400199625059	-0.393761576937233	0.0	1.1016747245037535	-0.3329769733526499	0.0	1.1188987170547589	-0.36896825231979014	0.0	1.0895042995429194	-0.4080112891321668	0.0	1.1514052956354912	-0.43944985227300914	0.0	1.2109871782034136	-0.45490060278098676	0.0	1.0843025684227667	-0.4094967022726608	0.0	1.1425023248841961	-0.4413077378956194	0.0	1.2009279596215607	-0.452428489676056	0.0
56	0.9347546531302876	1.0620048465093614	-0.5257896372594906	0.0	1.0576834876595398	-0.5248229651357453	0.0	1.060320611749866	-0.6251215025840061	0.0	1.0467488062908112	-0.7170006844019446	0.0	1.0841322249728025	-0.7228140129254244	0.0	1.0732014023283132	-0.7263615281840559	0.0	1.0394178114826695	-0.7261022313248534	0.0	1.0689266385239107	-0.523848771095032	0.0	1.076213673810579	-0.6244910266680767	0.0	1.0543466431204542	-0.7118840933351953	0.0	1.0890392309292434	-0.7233571941160275	0.0	1.082741371228317	-0.7174040815399473	0.0	1.0438942331284766	-0.721016460551417	0.0	1.0873819310168453	-0.39460603644357245	0.0	1.1021743424019328	-0.33384328295107146	0.0	1.1193408057399403	-0.3697277382869789	0.0	1.08979065093927	-0.4097727604407026	0.0	1.1494808237347203	-0.44631102511591875	0.0	1.2077119182250637	-0.46660079090404105	0.0	1.0834850963526286	-0.41083155540852034	0.0	1.1383005916855902	-0.4484091513307197	0.0	1.1961900835243668	-0.46474232458592646	0.0
57	0.9514467005076142	1.0617788952556961	-0.5263828738416094	0.0	1.057516098930581	-0.5254860584730667	0.0	1.06031335683807	-0.6256532232040258	0.0	1.0466684323336293	-0.7176190119889522	0.0	1.083931947807836	-0.7239622116287455	0.0	1.0723914105793861	-0.7274033909386152	0.0	1.0391308684064529	-0.7268225716180337	0.0	1.0687056949580631	-0.5245877155026021	0.0	1.076858930005534	-0.6249618360652908	0.0	1.0543696821501993	-0.7124156385001188	0.0	1.088616612378081	-0.7246604571179089	0.0	1.0826816200882345	-0.7185419198800354	0.0	1.0440781775773857	-0.7223468256874824	0.0	1.0876442067392036	-0.39545557395580344	0.0	1.1026276824194479	-0.3348104586954886	0.0	1.119714790302201	-0.3705424837418921	0.0	1.0899779636163616	-0.4115677916999728	0.0	1.1470232883019973	-0.4530830882482445	0.0	1.2035493600545788	-0.47813248634270783	0.0	1.0824515050211303	-0.4121052345833502	0.0	1.1334380557160546	-0.45528034196434763	0.0	1.1905559880268868	-0.4768481072650531	0.0
58	0.9681387478849407	1.0616699493372779	-0.5270912176883814	0.0	1.0575260756933529	-0.5263451048928091	0.0	1.0604174711993128	-0.6263158994549972	0.0	1.046607998745215	-0.7183457462953807	0.0	1.0836837511374795	-0.7254449309884302	0.0	1.0714727552895897	-0.7287901645787656	0.0	1.0388531447306262	-0.7277865449079463	0.0	1.0685107511361316	-0.5255520231448728	0.0	1.077452718114493	-0.6255521583654752	0.0	1.0543599778800843	-0.7130981649374911	0.0	1.0881637846942067	-0.7262004844752358	0.0	1.0825210969153793	-0.719940690574731	0.0	1.0441785489469082	-0.723956300118422	0.0	1.087823029237297	-0.3962993553448487	0.0	1.1030120546521751	-0.33586457440866285	0.0	1.1200069554068575	-0.3714080254143662	0.0	1.0900598505020307	-0.41335912392838425	0.0	1.1440187231615018	-0.4596787208191728	0.0	1.198491420099871	-0.4893659905090844	0.0	1.0812562597358966	-0.4133047677341612	0.0	1.1280571954428882	-0.4617811162056217	0.0	1.1840818808920515	-0.48853322085744544	0.0
59	0.9848307952622672	1.06169054725711	-0.5279062339245852	0.0	1.0577098913605654	-0.5273882619028049	0.0	1.0606306366384972	-0.6271124070607955	0.0	1.046565986592881	-0.7191665417417431	0.0	1.0833838005703822	-0.7272515019128213	0.0	1.0704539253710195	-0.7305066186756499	0.0	1.0385968399339454	-0.728980961186105	0.0	1.068360035940252	-0.5267282301965261	0.0	1.0779781745526629	-0.6262700384531599	0.0	1.0543143396351669	-0.7139215642175143	0.0	1.0877075672305105	-0.7279362226820508	0.0	1.082250635442982	-0.7215702153532298	0.0	1.0441873319950457	-0.725799160783174	0.0	1.0879215558346	-0.39713520514047185	0.0	1.1033129755271875	-0.3369864613325969	0.0	1.1202087026073648	-0.3723182235612491	0.0	1.0900229856886994	-0.41510902143413786	0.0	1.1404603372011741	-0.46600046682227153	0.0	1.1925375611428624	-0.5001690616627388	0.0	1.0799881805672116	-0.4144279996418431	0.0	1.1223136061684924	-0.46780023659277764	0.0	1.1768200614544104	-0.4996241211187857	0.0
